PathFileType	4	(X/Y/Z)	c:/Users/goper/Files/vsCode/490R/osim_files/C07/C07_Slow_06.trc
DataRate	CameraRate	NumFrames	NumMarkers	Units                	OrigDataRate	OrigDataStartFrame	OrigNumFrames
250.00	250.00	9	36	mm	250.0	1145	3051
                Frame#	Time	LPSIS			LASIS			LTH1			LTH2			LTH3			LTH4			LLFE			LMFE			LSH1			LSH2			LSH3			LSH4			LLMAL			LMMAL			LCAL			LMTP5			LTOE			LMTP1			RPSIS			RASIS			RTH1			RTH2			RTH3			RTH4			RLFE			RMFE			RSH1			RSH2			RSH3			RSH4			RLMAL			RMMAL			RCAL			RMTP1			RTOE			RMTP5		
		X1	Y1	Z1	X2	Y2	Z2	X3	Y3	Z3	X4	Y4	Z4	X5	Y5	Z5	X6	Y6	Z6	X7	Y7	Z7	X8	Y8	Z8	X9	Y9	Z9	X10	Y10	Z10	X11	Y11	Z11	X12	Y12	Z12	X13	Y13	Z13	X14	Y14	Z14	X15	Y15	Z15	X16	Y16	Z16	X17	Y17	Z17	X18	Y18	Z18	X19	Y19	Z19	X20	Y20	Z20	X21	Y21	Z21	X22	Y22	Z22	X23	Y23	Z23	X24	Y24	Z24	X25	Y25	Z25	X26	Y26	Z26	X27	Y27	Z27	X28	Y28	Z28	X29	Y29	Z29	X30	Y30	Z30	X31	Y31	Z31	X32	Y32	Z32	X33	Y33	Z33	X34	Y34	Z34	X35	Y35	Z35	X36	Y36	Z36

1145	4.57600	-520.69989	997.12610	350.11914	-692.68512	979.44446	422.06274	-668.79413	775.31006	468.00916	-696.42950	701.69983	459.27560	-725.82404	634.01270	441.54593	-769.75232	733.72015	441.14560	-742.85236	514.25714	414.20712	-738.43323	505.63843	294.75476	-734.33917	322.45850	416.68536	-721.67761	278.45700	400.10349	-772.33258	332.39526	402.98618	-772.68781	287.30872	393.74045	-728.01550	102.44637	352.60471	-753.16394	129.20038	282.23682	-669.88342	46.00357	304.53156	-853.68817	40.00800	378.85873	-910.80994	53.66275	325.37372	-879.48419	41.64775	273.73154	-523.31390	1001.25189	249.47125	-682.00446	964.33746	167.11189	-630.70935	810.15802	116.16744	-634.02252	731.01147	112.30766	-634.74567	649.53845	115.13679	-705.06390	732.89478	141.92825	-609.74371	475.66714	141.51624	-626.65088	481.10724	256.94492	-443.30597	391.69110	144.46104	-426.94824	337.61951	144.09659	-485.80145	347.41605	143.17053	-452.23230	318.96878	150.51691	-287.95407	241.22852	198.30270	-321.76260	227.72765	272.27963	-222.76761	260.63214	250.73390	-319.14996	83.38702	299.24448	-333.29398	67.58823	252.87584	-286.80133	80.65711	193.47903
1146	4.58000	-524.67548	997.52087	350.34283	-696.76245	980.00531	422.07974	-672.63165	775.85321	468.09351	-700.12921	702.20386	459.40274	-729.05463	634.48071	441.56296	-773.31995	733.97540	440.56491	-745.13013	514.30585	414.15399	-740.43842	505.72803	294.64102	-735.48322	322.65051	416.60873	-722.34540	278.65958	399.99149	-773.54254	332.53714	403.27048	-773.66418	287.26187	393.87927	-728.17908	102.49211	352.56555	-753.33228	129.18077	282.14520	-669.91309	46.06419	304.51807	-853.70361	40.01429	378.85648	-910.87256	53.57924	325.34314	-879.53448	41.63482	273.72345	-527.11914	1001.47168	249.90964	-686.02222	965.06848	167.46455	-635.96307	810.31195	116.25393	-640.35938	731.21277	112.21012	-642.52509	649.39746	115.49794	-711.30737	733.85413	141.98219	-619.08435	475.92551	141.05072	-635.32782	481.43295	256.62643	-452.59244	393.11130	143.34677	-435.64090	339.04773	143.18646	-494.65533	348.36661	142.37038	-460.95444	320.28967	149.63582	-296.00568	244.18028	196.93002	-329.37012	230.46410	270.90460	-231.75410	265.60754	248.40152	-323.69711	85.67043	297.88168	-337.56699	67.43620	250.69705	-291.82431	83.15032	192.18388
1147	4.58400	-528.64380	997.87311	350.52179	-700.98761	980.53632	421.97949	-676.41016	776.42102	468.19202	-703.76050	702.67114	459.44232	-732.32764	634.78400	441.56039	-776.80750	734.21472	440.07272	-747.37561	514.29047	414.15405	-742.31934	505.77377	294.58347	-736.24005	322.71716	416.63022	-723.16797	278.93881	400.37851	-774.50739	332.21353	403.06619	-774.53180	287.08234	393.97366	-728.27533	102.52243	352.53177	-753.48285	129.14084	282.04523	-669.94421	46.03294	304.54800	-853.71027	39.96832	378.88293	-910.90698	53.45948	325.32886	-879.54938	41.60791	273.73615	-531.04144	1001.61694	250.36595	-689.55469	965.36847	167.10092	-641.25409	810.49884	116.28670	-646.61176	731.46906	112.18150	-649.65686	649.60077	115.49182	-717.50995	734.87280	142.00111	-628.32129	476.17114	140.71696	-644.02478	482.06842	256.49753	-461.85620	394.33340	142.35211	-444.45959	340.43439	142.15004	-503.67828	349.41446	141.62187	-469.66345	321.53674	148.71429	-305.24142	246.30786	196.96184	-337.01440	233.00854	269.39960	-241.00591	270.48059	245.95959	-328.40521	87.95415	296.88547	-342.70596	68.04745	249.90956	-296.99628	85.67439	191.02879
1148	4.58800	-532.58801	998.17792	350.80850	-704.90234	981.00806	422.02109	-680.25464	777.08417	468.28394	-706.95544	703.07855	459.47763	-735.24164	635.06329	441.53745	-780.18933	734.37524	439.70251	-749.43842	514.23755	414.20392	-744.20581	505.78168	294.64444	-737.26740	322.67572	416.64685	-723.97559	278.84412	400.26212	-775.59552	332.22171	403.42935	-775.18457	286.90485	394.15616	-728.38513	102.56339	352.53229	-753.66461	129.15240	281.98721	-670.00000	46.04309	304.56433	-853.69983	39.90786	378.92505	-910.96204	53.39588	325.30969	-879.58807	41.59523	273.73267	-534.78613	1001.80688	250.68445	-693.48322	966.16412	167.47034	-646.47699	810.78839	116.28826	-652.84674	731.81665	112.11560	-656.99207	649.71106	115.66299	-724.16125	736.01703	142.00322	-637.59375	476.38977	140.19940	-652.15698	482.56082	256.29306	-471.07529	395.66663	141.15404	-453.50412	341.91843	141.02557	-512.68640	350.44485	140.83957	-478.39328	322.71945	147.83936	-312.28638	249.96948	192.77509	-344.48926	235.47536	267.93912	-250.58179	274.97845	243.41052	-333.34888	89.64581	295.51740	-347.26462	68.58778	248.33147	-302.39737	88.12838	189.79634
1149	4.59200	-536.56500	998.49341	351.01056	-708.95251	981.42969	422.06387	-683.91156	777.56201	468.37741	-710.51300	703.62378	459.57306	-738.41119	635.43530	441.58182	-783.61151	734.47485	439.29398	-751.57043	514.12030	414.24515	-746.38574	505.89566	294.62949	-738.51587	322.74081	416.82446	-724.89246	278.68848	400.38684	-776.74786	331.72885	403.33334	-776.29193	286.74881	394.29913	-728.49426	102.54712	352.57962	-753.85675	129.15030	281.88171	-670.00140	45.99704	304.64899	-853.68481	39.81870	379.00253	-910.97729	53.26488	325.33801	-879.58563	41.57958	273.76077	-538.63611	1001.95972	251.05446	-697.22321	966.67474	167.50204	-651.68542	811.07330	116.35739	-658.94482	732.14581	112.10205	-664.16406	650.06055	115.70742	-730.16724	737.06909	142.05852	-646.57581	476.81812	139.91887	-660.74969	483.17667	256.11441	-480.35007	396.89243	140.28308	-462.43948	343.23895	140.22145	-521.68268	351.21060	140.15749	-487.12134	323.97070	147.04582	-320.42346	252.47990	191.51929	-352.14447	237.74896	266.66281	-260.58597	279.05310	241.15906	-338.71054	91.31882	294.14325	-352.93286	68.85805	247.26958	-308.02670	90.38269	188.51425
1150	4.59600	-540.51813	998.82526	351.25623	-712.87292	981.87292	422.08575	-687.40350	777.95618	468.49036	-713.94824	703.93243	459.71194	-741.42218	635.59662	441.60822	-786.81842	734.52301	438.98785	-753.68628	514.11786	414.34665	-748.48615	505.96964	294.62872	-739.89069	322.55981	417.03622	-725.96973	278.83157	401.05063	-777.95538	331.66782	403.76251	-777.24622	286.56552	394.40848	-728.64746	102.54808	352.65973	-753.98663	129.11769	281.79434	-670.06268	45.98006	304.71390	-853.66382	39.74476	379.10736	-911.04291	53.14038	325.36771	-879.65326	41.56447	273.79114	-542.40778	1002.23132	251.30170	-700.98236	967.26514	167.51625	-656.85437	811.42297	116.46414	-665.06183	732.59570	112.06602	-671.06085	650.60870	115.59055	-736.03601	738.25714	142.16901	-655.75824	477.29419	139.87213	-668.81097	483.87662	255.98944	-489.79007	398.11829	139.36969	-471.46933	344.59100	139.10608	-530.75403	352.44208	139.46803	-495.96646	325.24411	146.26457	-328.43219	255.03252	189.93243	-359.92178	239.88712	265.40460	-270.46692	282.67929	239.32146	-344.23215	92.97405	292.54810	-358.45963	69.46720	245.61388	-313.74832	92.50127	186.86783
1151	4.60000	-544.40070	999.19708	351.43066	-716.87103	982.32526	422.14871	-691.03741	778.46417	468.62659	-717.08826	704.21539	459.76749	-744.18396	635.80634	441.70538	-790.20331	734.60565	438.68790	-755.71344	514.15771	414.43777	-750.26044	505.88983	294.73941	-741.02222	322.52737	417.34802	-727.14075	278.78802	401.24689	-779.32690	331.27802	403.66580	-778.35474	286.40222	394.44205	-728.80994	102.57541	352.70605	-754.16803	129.11707	281.76834	-670.06372	45.99480	304.73648	-853.68658	39.73115	379.20764	-911.07928	53.08258	325.38138	-879.65002	41.53608	273.82565	-546.16864	1002.51318	251.69328	-704.70227	967.91296	167.64777	-661.98083	811.78619	116.50305	-671.03278	733.14520	112.04723	-677.85089	651.24658	115.53648	-741.70416	739.45551	142.14464	-664.80994	478.02863	139.58006	-677.27716	484.76675	255.90958	-499.01401	399.35779	138.34756	-480.56451	345.99353	138.01950	-539.93951	353.46393	138.64401	-504.93771	326.46667	145.41330	-336.63046	257.49915	188.57642	-367.67355	241.86908	264.05179	-279.94153	286.00604	237.73430	-350.00699	94.75603	290.93301	-364.34216	70.38239	243.97061	-319.93060	94.83636	185.26268
1152	4.60400	-548.33002	999.62555	351.63388	-720.89691	982.72644	422.33258	-694.58820	778.91547	468.73325	-720.11530	704.50421	459.91431	-747.00665	635.88251	441.76166	-793.42932	734.68207	438.62466	-757.76306	514.10730	414.48190	-751.71613	505.83878	294.83441	-742.40491	322.55115	417.67236	-728.34174	278.68732	401.54266	-780.73920	331.38303	404.00122	-779.57214	286.29324	394.43384	-728.92566	102.59444	352.72702	-754.25818	129.10094	281.72803	-670.09564	46.02809	304.76645	-853.66748	39.70634	379.29831	-911.10547	52.97893	325.38284	-879.65399	41.54605	273.86783	-550.06934	1002.65045	251.61186	-708.63611	968.41467	168.37642	-667.31415	812.11554	116.69611	-677.09186	733.61322	112.15564	-684.59070	651.94800	115.53474	-747.10645	740.64838	142.08357	-673.80707	478.74835	139.40967	-685.39453	485.57773	255.79362	-508.19931	400.60391	137.24524	-489.47913	347.19534	137.23843	-548.93561	354.51004	138.16971	-513.85193	327.71887	144.70860	-345.00504	259.69376	186.97168	-375.90848	243.79639	262.73016	-288.78604	288.74194	236.23784	-356.18832	96.54771	289.37912	-370.76953	71.96789	242.35678	-326.59213	97.31990	183.52594
1153	4.60800	-552.17224	1000.15570	351.78171	-724.83728	983.14856	422.30664	-697.95691	779.25745	468.88205	-723.11725	704.79956	459.97778	-749.75409	636.10760	441.90591	-796.34003	734.46948	438.43637	-759.80603	514.14923	414.50351	-753.53595	505.82355	294.95172	-743.85321	322.70123	418.37509	-729.52155	278.82538	401.99451	-782.06720	331.06784	403.60239	-780.74823	286.15952	394.43024	-729.05591	102.59814	352.72116	-754.38104	129.08792	281.71970	-670.08472	46.05145	304.79825	-853.72083	39.69270	379.35812	-911.12598	52.90857	325.38919	-879.68695	41.55448	273.90555	-553.79144	1003.00488	251.87364	-712.12115	969.26581	167.56610	-672.44824	812.57703	116.84793	-683.09308	734.19324	112.28050	-691.25793	652.57019	115.46616	-753.89893	741.96265	142.28476	-682.70160	479.54419	139.24690	-693.72632	486.62778	255.71986	-517.38916	401.88025	136.19189	-498.52863	348.70810	136.20601	-557.98730	355.53024	137.63844	-522.64355	328.97354	144.12030	-353.27734	262.33633	185.57539	-383.86887	245.55522	261.29352	-297.04483	291.31415	235.19769	-362.98267	98.49957	287.73892	-377.70212	73.92535	240.49638	-333.51163	99.82391	181.63771
